<?xml version="1.0" encoding="UTF-8"?>
<svg id="Layer_2" data-name="Layer 2" xmlns="http://www.w3.org/2000/svg" viewBox="0 0 352.8 61.75">
  <defs>
    <style>
      .cls-1 {
        fill: #d7d3c8;
        stroke-width: 0px;
      }
    </style>
  </defs>
  <g id="Layer_1-2" data-name="Layer 1">
    <g>
      <path class="cls-1" d="m2.26,22.18c25.84-5.54,52.28-7.55,78.67-7.92,7.45-.1,14.89-.08,22.34.04,1.61.02,1.61-2.48,0-2.5-26.54-.4-53.17.32-79.48,4.04-7.44,1.05-14.84,2.36-22.19,3.93-1.57.34-.91,2.75.66,2.41h0Z"/>
      <path class="cls-1" d="m2.17,25.21c25.81-4.96,52.04-7.48,78.31-7.89,7.5-.12,14.99-.06,22.49.15,1.61.05,1.61-2.46,0-2.5-26.49-.74-53.03.53-79.29,4.17-7.42,1.03-14.82,2.25-22.18,3.67-1.58.3-.91,2.71.66,2.41h0Z"/>
      <path class="cls-1" d="m20.09,28.84c13.21-2.59,26.76-2.49,40.14-1.58,1.61.11,1.6-2.39,0-2.5-13.62-.92-27.37-.96-40.81,1.67-1.58.31-.91,2.72.66,2.41h0Z"/>
      <path class="cls-1" d="m20.01,32.04c13.45-2.04,27.16-2.45,40.71-1.37,1.6.13,1.6-2.37,0-2.5-13.79-1.1-27.7-.62-41.38,1.46-1.59.24-.91,2.65.66,2.41h0Z"/>
      <path class="cls-1" d="m16.53,24.98c.06.25.16.51.31.73.47-.25-.89,1.16,3.14.76,1.72-1.73.56-.63.97-1.09.04-.09.08-.19.1-.29l.04-.15v-.08c.02-.07.01-.01,0,.04-.24,2.35-.47,6.22-.65,8.62-.48,7.44-1.13,17.39-1.48,24.79-.01.2-.05,1.36-.05,1.59,0,0-.01-.08-.02-.09,0,0-.01-.04-.01-.04.02.08-.04-.23-.22-.44-.29-.19-.05-.36-1.09-.45-1.22.5-.89.89-.95.72-.03.07-.05.16-.06.22.02-.07.04-.28.05-.36.21-1.5,2.42-1.27,2.35.22-.02.24-.02.61-.13.84-.05-.16.27.23-.96.73-1.05-.07-.8-.26-1.1-.45-.18-.22-.24-.53-.22-.46-.11-.57-.08-1.49-.11-2.06-.13-9.16-.13-20.27-.09-29.44.02-1.28,0-3.28.09-4.55.03-.25.09-.54.19-.77.42-.47-.74.62.98-1.11,4.04-.4,2.68,1.01,3.15.76,1.8,3.2-3.24,5.29-4.25,1.8h0Z"/>
      <path class="cls-1" d="m8.83,26.14c.06.25.17.52.32.75.44-.23-.79,1.14,3.08.75,1.78-1.75.58-.64,1.01-1.1.04-.09.08-.19.1-.29l.04-.16v-.08s.02-.05.02-.03c0,0,0,.04-.01.07-.12,1.06-.25,2.95-.34,4.04-.58,8.1-1.24,18.43-1.69,26.54-.05.93-.15,2.83-.16,3.76,0-.04-.02-.1-.03-.14.02.07-.04-.21-.21-.43-.3-.21-.05-.34-1.02-.46-1.23.38-1,.92-1.02.71-.03.07-.06.16-.07.23,0,0,.01-.07.01-.07.07-1.92,2.69-1.62,2.37.25,0,0-.02.2-.02.2-.02.1-.04.23-.09.33-.02-.2.21.35-1.03.73-.98-.12-.73-.26-1.03-.47-.17-.22-.23-.51-.21-.44-.16-1.17-.1-3.07-.14-4.26-.08-8.15-.1-18.52-.05-26.67.03-1.26,0-3.22.09-4.47.03-.26.09-.54.2-.78.43-.47-.77.63,1.01-1.12,3.88-.39,2.65.98,3.09.76,1.85,3.18-3.2,5.34-4.23,1.84h0Z"/>
      <path class="cls-1" d="m59.4,20.84c.08.36.28.76.57,1.06-.68-.15,2.08,1.81,3.7-.37.31-.59.13-.28.22-.46.02-.07.04-.14.06-.21.03-.15.02-.11.03-.17,0-.01,0-.03,0-.01-.03.2-.07.73-.09.95-.62,8.53-1.22,19.66-1.7,28.25-.12,2.23-.33,6.38-.4,8.59,0,0,0,.54,0,.54-.05-.27-.14-.58-.59-.87-1.39-.54-1.97,1.04-1.68.57l-.04.1-.03.1v.02s.04-.33.04-.38c.2-1.51,2.41-1.29,2.35.2,0,0-.02.34-.02.34l-.02.23v.06s-.01.03-.04.14l-.04.12c.28-.46-.3,1.12-1.7.58-.38-.25-.35-.31-.49-.52-.15-.37-.11-.34-.13-.53-.03-.41-.06-1.51-.06-1.94-.13-9.98-.13-22.1-.09-32.09.02-1.28.02-3.45.08-4.72,0,0,.01-.21.01-.21l.02-.17c.01-.09,0-.07.05-.25.02-.08.04-.15.06-.23.09-.19-.09.12.23-.48,1.62-2.18,4.39-.23,3.71-.37,2.48,3.12-2.78,5.91-3.99,2.15h0Z"/>
      <path class="cls-1" d="m41.86,32.59c.07.32.24.67.47.94-.35-.39.97,1.92,3.61,0,.61-.96.23-.39.39-.67.03-.08.05-.16.07-.24l.03-.13v-.07s.02-.05.01-.04c0,0,0,.02,0,.04-.1.81-.21,2.27-.28,3.1-.18,2.14-.61,8-.77,10.23-.24,3.53-.66,9.29-.83,12.77,0,0-.01.35-.01.35-.03-.15-.07-.37-.26-.61-.17.03.03-.63-1.53-.28-.88.89-.32.41-.51.59l-.04.11c-.03.13-.02.07-.02.11,0,.02,0,0,0-.03l.02-.18c.27-1.67,2.62-1.22,2.34.42,0,0-.02.18-.02.18-.01.06,0,.02-.03.16l-.04.12c-.19.19.37-.29-.51.6-1.56.35-1.36-.31-1.53-.29-.34-.44-.26-.79-.3-1.23-.02-.53-.06-2.04-.08-2.6-.11-4.92-.2-12.2-.26-17.14,0-1.91-.06-4.86,0-6.74.01-.27.06-.57.16-.82.16-.28-.22.28.39-.68,2.64-1.91,3.97.39,3.62,0,.23.28.4.63.47.95.63,3.03-3.77,4.06-4.56,1.08h0Z"/>
      <path class="cls-1" d="m30.54,33.23c-.62,7.46-1.71,18.54-1.9,25.92-.05,1.48-2.23,1.54-2.36.06-.49-7.49-.38-18.66-.42-26.25.1-3.28,4.96-3,4.68.28h0Z"/>
      <path class="cls-1" d="m76.54,19.38c-.66,11.33-1.83,28.09-2.06,39.28-.04,1.5-2.27,1.55-2.36.04-.46-11.25-.27-28.12-.26-39.52.11-3.21,4.86-3.02,4.68.21h0Z"/>
      <path class="cls-1" d="m148.2,20.43c-.39,6.24-1.39,22.12-1.67,28.15-.15,3.13-.3,6.31-.35,9.39-.01.65-.55,1.17-1.2,1.16-.63-.01-1.13-.51-1.16-1.12-.15-3.21-.19-6.32-.24-9.48-.11-5.99-.08-22.12-.06-28.31.1-3.21,4.86-3.02,4.68.21h0Z"/>
      <path class="cls-1" d="m102.14,57.95l.02-52.72c-.05-.95.75-1.75,1.7-1.67,0,0,11.74.87,11.74.87l-.83.83-.87-3.55c-.18-.74.27-1.49,1.01-1.67.19-.07.45-.03.65-.03,0,0,19.96.38,19.96.38.19,0,.37.05.51.16l6.61,4.84c.37.27.45.79.18,1.16s-.79.45-1.16.18l-6.61-4.84.51.16-19.91,1.36,1.66-1.7-.87,3.55c-.06.44-.39.81-.83.83,0,0-11.74.87-11.74.87l1.7-1.67-1.76,52.69c-.03,1.02-1.64,1.1-1.67-.03h0Z"/>
      <path class="cls-1" d="m0,59.57L.44,21.16c.05-1.95,2.97-1.94,2.98.03,0,0-2.17,38.4-2.17,38.42-.04.78-1.26.77-1.25-.04H0Z"/>
      <path class="cls-1" d="m133.42,57.95l.44-53.17c0-.82.68-1.49,1.5-1.48.82,0,1.49.68,1.48,1.5,0,.04-2.17,53.13-2.17,53.17-.03.78-1.25.79-1.25-.03h0Z"/>
      <path class="cls-1" d="m85.29,20.38c3.99.05,8.07.04,12.07.43,2.09.27,1.84,3.37-.26,3.31-.9-.04-1.89-.03-2.88,0-2.85.09-5.98.24-8.8.43-2.84.1-2.97-4.1-.13-4.17h0Z"/>
      <path class="cls-1" d="m85.29,30.82c2.88,0,6.07.08,8.97.2,1.54.2,4.7-.35,4.55,2.07-.1.89-.89,1.53-1.77,1.46-3.77-.09-7.86.21-11.63.43-2.84.1-2.97-4.1-.13-4.17h0Z"/>
      <path class="cls-1" d="m85.29,40.99c2.88,0,6.07.08,8.97.2,1.54.2,4.7-.35,4.55,2.07-.1.89-.89,1.53-1.77,1.46-3.77-.09-7.86.21-11.63.43-2.84.1-2.97-4.1-.13-4.17h0Z"/>
      <path class="cls-1" d="m85.64,51.16c2.88,0,6.07.08,8.97.2,1.54.2,4.7-.35,4.55,2.07-.1.89-.89,1.53-1.77,1.46-3.77-.09-7.86.21-11.63.43-2.84.1-2.97-4.1-.13-4.17h0Z"/>
      <path class="cls-1" d="m351.2,19.77c-25.98-5.57-52.57-7.63-79.09-8.01-7.53-.11-15.05-.08-22.58.03-1.61.02-1.61,2.52,0,2.5,26.39-.4,52.9.26,79.06,3.99,7.36,1.05,14.68,2.34,21.95,3.9,1.57.34,2.24-2.07.66-2.41h0Z"/>
      <path class="cls-1" d="m351.29,22.8c-26.02-5-52.49-7.56-78.98-7.98-7.5-.12-14.99-.06-22.49.15-1.61.04-1.61,2.55,0,2.5,26.26-.73,52.59.47,78.62,4.08,7.42,1.03,14.82,2.25,22.18,3.67,1.57.3,2.25-2.11.66-2.41h0Z"/>
      <path class="cls-1" d="m333.37,26.43c-13.44-2.64-27.19-2.59-40.81-1.67-1.6.11-1.61,2.61,0,2.5,13.38-.91,26.93-1.01,40.14,1.58,1.57.31,2.24-2.1.66-2.41h0Z"/>
      <path class="cls-1" d="m333.45,29.63c-13.68-2.08-27.58-2.55-41.38-1.46-1.59.13-1.61,2.63,0,2.5,13.56-1.08,27.26-.68,40.71,1.37,1.57.24,2.25-2.17.66-2.41h0Z"/>
      <path class="cls-1" d="m331.7,23.93c.06-.25.17-.52.32-.75.47.24-.89-1.17,3.15-.76,1.72,1.73.57.64.98,1.11.07.14.12.34.15.49.07.41.07.99.09,1.41.09,4.62.06,12.32.07,17.01-.06,5.05.03,12.76-.19,17.75,0,0-.02.11-.02.11v.06c0-.07-.06.24-.24.46-.3.2-.05.38-1.1.45-1.23-.5-.9-.89-.96-.73-.07-.15-.09-.36-.11-.53-.29-1.96,2.35-2.14,2.38-.17,0-.06-.03-.15-.06-.22-.05.17.27-.22-.95-.72-1.04.08-.8.25-1.09.45-.24.33-.2.43-.24.56,0-.19-.04-1.28-.05-1.57-.45-9.12-1.17-20.18-1.8-29.3-.07-.97-.21-2.92-.31-3.88,0,0-.03-.24-.03-.24,0-.05-.02-.12,0-.04.03.18.08.35.15.52.41.46-.74-.63.97,1.09,4.03.4,2.67-1.01,3.14-.76.15-.23.25-.49.31-.73-.77,3-5.18,1.97-4.57-1.05h0Z"/>
      <path class="cls-1" d="m339.4,25.07c.06-.26.17-.53.33-.77.44.22-.79-1.15,3.09-.76,1.79,1.75.58.65,1.01,1.12.06.13.11.3.14.44.09.43.08,1.01.1,1.45.09,4.54.06,12.09.07,16.7-.05,4.92.02,12.48-.18,17.34-.05.31,0,.31-.26.7-.3.21-.05.35-1.03.47-1.23-.38-1.01-.93-1.03-.73-.05-.11-.07-.22-.09-.33-.02-.11-.03-.4-.04-.51-.07-1.53,2.18-1.69,2.35-.19,0,0,.03.25.03.25v.07c0-.07-.02-.15-.06-.23-.02.2.21-.34-1.02-.72-.97.13-.73.25-1.02.46-.24.36-.19.4-.23.56,0-.28-.04-1.25-.05-1.55-.45-8.95-1.17-19.8-1.8-28.75-.07-.96-.21-2.86-.31-3.81,0,0-.03-.23-.03-.23,0-.03-.01-.07-.01-.07,0-.01.01.09.02.11.04.16.08.3.14.45.43.47-.77-.64,1.01,1.1,3.88.38,2.64-.98,3.08-.75.15-.23.27-.5.32-.75-.79,3-5.19,1.95-4.56-1.07h0Z"/>
      <path class="cls-1" d="m288.84,19.77c.08-.36.29-.77.58-1.07-.68.14,2.09-1.81,3.71.37.31.6.14.29.23.48.03.07.05.15.06.23.04.18.03.16.05.25.03.2.04.52.05.73.16,10.69.08,23.29,0,33.99-.01.77-.04,2.97-.07,3.72-.04.36.03.8-.17,1.22-.14.22-.11.27-.49.52-1.39.54-1.98-1.04-1.7-.58l-.04-.12c-.04-.15-.03-.11-.04-.2-.02-.13-.04-.43-.04-.57.03-1.73,2.42-1.61,2.39.11,0,.04.02.11,0,.05-.01-.06-.04-.15-.06-.21.28.47-.3-1.11-1.68-.57-.45.28-.55.61-.59.87-.39-10.6-1.2-23.11-1.85-33.72-.07-1.06-.21-3.19-.31-4.25,0,0-.03-.27-.03-.27,0,0-.02-.15-.01-.08,0,.07.05.27.09.38.09.19-.09-.13.22.46,1.61,2.18,4.37.22,3.7.37.28-.29.49-.7.57-1.06-.79,3-5.19,1.94-4.56-1.07h0Z"/>
      <path class="cls-1" d="m306.38,31.51c.07-.32.24-.68.47-.95-.35.38.98-1.92,3.62,0,.62.96.23.4.39.68.03.08.06.16.08.25.03.12.06.28.07.4.1,6.32-.11,14.28-.18,20.63-.07,1.93-.03,4.88-.21,6.78,0,0-.1.35-.23.48-.17-.02.03.63-1.53.29-.89-.89-.33-.41-.51-.6l-.04-.12c-.05-.21-.05-.38-.06-.58.04-1.71,2.36-1.59,2.39.03,0-.04,0,.02-.02-.11l-.04-.11c-.18-.18.37.3-.51-.59-1.56-.34-1.36.31-1.53.28-.19.22-.23.46-.26.61-.45-8.26-1.15-17.62-1.83-25.87,0,0-.04-.4-.04-.4l-.02-.17c-.02-.11,0,.03,0,.07.03.13.06.24.1.37.16.27-.23-.29.39.67,2.63,1.91,3.96-.39,3.61,0,.23-.27.4-.62.47-.94-.79,2.99-5.2,1.94-4.56-1.08h0Z"/>
      <path class="cls-1" d="m326.94,32.96c0,4.35-.02,15.45-.15,19.65-.06,2.2-.11,4.34-.27,6.6-.05.65-.61,1.14-1.26,1.09-.64-.04-1.11-.59-1.1-1.21-.2-7.31-1.28-18.46-1.9-25.86-.28-3.26,4.57-3.57,4.68-.28h0Z"/>
      <path class="cls-1" d="m280.94,19.17c0,11.46.2,28.21-.26,39.52-.09,1.49-2.31,1.48-2.36-.03-.05-3.22-.2-6.55-.35-9.83-.28-6.28-1.31-23.03-1.71-29.51-.1-3.17,4.58-3.34,4.68-.15h0Z"/>
      <path class="cls-1" d="m209.28,20.21c0,10.96.15,26.97-.3,37.79-.09,1.49-2.31,1.48-2.36-.03-.05-3.08-.2-6.26-.35-9.4-.28-6-1.28-22.01-1.68-28.21-.11-3.17,4.58-3.34,4.68-.15h0Z"/>
      <path class="cls-1" d="m249,57.98l-1.76-52.69,1.7,1.67-11.74-.87c-.46-.03-.77-.41-.83-.83,0,0-.87-3.55-.87-3.55l1.66,1.7-19.91-1.36.51-.16-6.61,4.84c-.37.27-.89.19-1.16-.18s-.19-.89.18-1.16l6.61-4.84c.16-.11.33-.16.51-.16L237.24,0h.29c.89-.04,1.59.84,1.37,1.7,0,0-.87,3.55-.87,3.55l-.83-.83,11.74-.87c.95-.08,1.76.73,1.7,1.67,0,0,.02,52.72.02,52.72-.02,1.03-1.6,1.14-1.67.03h0Z"/>
      <path class="cls-1" d="m351.55,59.62l-2.17-38.35c-.08-1.95,2.83-2.13,2.98-.17,0,0,.43,38.46.44,38.48,0,.78-1.2.85-1.25.04h0Z"/>
      <path class="cls-1" d="m218.12,57.98l-2.17-53.13c-.03-.82.61-1.52,1.43-1.55.82-.03,1.52.61,1.55,1.43,0,.04.44,53.17.44,53.22,0,.78-1.21.85-1.25.03h0Z"/>
      <path class="cls-1" d="m267.37,24.55c-2.82-.19-5.96-.35-8.8-.43-1.64-.22-4.37.75-4.6-1.58.02-2.33,3.05-1.74,4.56-1.95,2.9-.12,6.08-.19,8.97-.2,2.85.07,2.72,4.27-.13,4.17h0Z"/>
      <path class="cls-1" d="m267.37,34.99c-2.82-.19-5.96-.35-8.8-.43-1.64-.22-4.37.75-4.6-1.58.02-2.33,3.05-1.74,4.56-1.95,2.9-.12,6.08-.19,8.97-.2,2.85.07,2.72,4.27-.13,4.17h0Z"/>
      <path class="cls-1" d="m267.37,45.16c-2.82-.19-5.96-.35-8.8-.43-1.64-.22-4.37.75-4.6-1.58.02-2.33,3.05-1.74,4.56-1.95,2.9-.12,6.08-.19,8.97-.2,2.85.07,2.72,4.27-.13,4.17h0Z"/>
      <path class="cls-1" d="m267.03,55.33c-2.82-.19-5.96-.35-8.8-.43-1.64-.22-4.37.75-4.6-1.58.02-2.33,3.05-1.74,4.56-1.95,2.9-.12,6.08-.19,8.97-.2,2.85.07,2.72,4.27-.13,4.17h0Z"/>
      <path class="cls-1" d="m215.93,12.62l-79.06-.9c-.29,0-.53-.24-.53-.54,0-.29.24-.52.53-.53l79.06-.9c1.88,0,1.93,2.86,0,2.87h0Z"/>
      <path class="cls-1" d="m215.93,17.49l-79.06.9c-.79,0-1.44-.63-1.45-1.42s.63-1.44,1.42-1.45c0,0,79.08.91,79.09.9.29,0,.53.24.53.54,0,.29-.24.52-.53.53h0Z"/>
      <path class="cls-1" d="m216.5,12.29c-.75,3.93-1.82,4.27-4.52,1.34-.54-.52-1.1-1.02-1.72-1.37l.18-.82c-1.01,1.02-.96,2.5-1.83,3.6-.45.5-.86,1.73-1.66,1.25-1.27-.86-2.81-2.62-4.08-3.13-.33-.12-.98.48-1.51,1.15-.54.67-1.05,1.42-1.56,2.16-.2.29-.61.37-.9.16-1.65-1.28-3.25-2.58-4.78-3.92l1.26-.15c-.79,1.09-1.47,2.22-2.59,3.1-2.42,1.74-4.33-1.68-6.11-2.84,0,0,1.29-.96,1.29-.96-1.18,1.5-2.59,3.21-4.03,4.52-.28.27-.72.27-1.01.03-1.07-.81-2.27-2.27-3.35-2.8-.19-.05-.33-.03-.56.08-.85.55-1.47,1.52-2.1,2.37-1.01,1.09-1.75-1.31-2.43-1.79-.39-.4-.8-.87-1.35-.74-1.19.46-2.36,2.14-3.55,2.74-1.53-1.22-3.09-2.37-4.4-3.71l.71.03c-4.02,3.37-4.71,5.07-8.19-.27,0,0,.79-.1.79-.1-1.53,1.37-3.08,2.74-4.63,4.07-.17.15-.44.12-.57-.07-.51-.74-1.01-1.5-1.58-2.18-.55-.66-1.21-1.37-1.9-1.24-.72.18-1.42.85-2.1,1.43-.68.6-1.38,1.2-2.09,1.77-.06.05-.15.04-.19-.02-1.14-1.32-2.23-2.62-3.31-3.99l.25.04c-1.31.79-2.19,2.1-3.39,3.06-.3.22-.74.47-1.19.3-1.08-.64-1.19-2.03-1.52-3.1-.01-.04.02-.09.06-.1.52.78.82,4.02,2.48,2.69,1.16-.98,2.03-2.33,3.35-3.16.08-.05.19-.04.25.04,1.12,1.34,2.23,2.74,3.3,4.13l-.41-.26c1.54-1.14,2.49-2.7,4.39-3.43,1.12-.2,1.92.7,2.56,1.41.62.71,1.14,1.46,1.68,2.2l-.57-.07c1.49-1.35,2.98-2.67,4.5-3.97.17-.15.42-.13.57.04.49.68.97,1.38,1.51,1.98.51.6,1.14,1.15,1.6,1,1.27-.56,2.49-2.14,3.69-3.02.21-.18.52-.16.71.03,1.4,1.3,2.76,2.83,3.96,4.21l-.92-.64c1.54-1.03,3.21-3.98,5.42-2.83,1.12.7,1.8,1.78,2.53,2.78,0,0-1.1,0-1.1,0,1.88-2.88,3.46-4.51,6.34-1.58.58.52,1.15,1.01,1.74,1.48l-1.02.04c.91-.97,2.45-2.02,3.54-2.78,0,0,1.29-.96,1.29-.96,1.12.78,2.55,2.43,3.61,2.9.11.02.2-.01.46-.18.86-.68,1.53-1.73,2.21-2.66.27-.39.81-.48,1.19-.21,1.63,1.42,3.22,2.93,4.73,4.41,0,0-1.4-.23-1.4-.23,2.26-2.97,3.75-5.67,7.16-2.02.67.62,1.33,1.22,2,1.81l-.83.09c.52-.56.84-1.11,1.6-1.34.4-.13.84-.43,1.17-.76.34-.33.65-.67.94-1.02l.18-.82c1.35.86,2.21,2.25,3.33,3.27.6.6,1.13.28,1.46-.4.35-.65.6-1.39.81-2.12.01-.04.06-.07.1-.06.04.01.07.05.06.1h0Z"/>
    </g>
  </g>
</svg>